<?xml version="1.0" encoding="UTF-8"?>
<svg id="Layer_1" data-name="Layer 1" xmlns="http://www.w3.org/2000/svg" viewBox="0 0 1038.49 689.28">
  <defs>
    <style>
      .cls-1 {
        fill: #afd5e2;
      }

      .cls-2 {
        fill: #f9db28;
      }
    </style>
  </defs>
  <path class="cls-2" d="M195.77,381.49c7.59-7.36,15.54-13.96,23.83-19.81L68.82,180.4h178.39v165.2c12.71-5.96,26.08-10.41,40.09-13.32v-151.88h59.42c9.77-17.59,21.46-34.36,35.05-50.25l-45.03-90.05h90.87l16.94,33.88c11.75-7.8,23.95-14.6,36.58-20.38L454.33,0H80.18L0,160.35l189.54,227.45c2.02-2.14,4.09-4.25,6.23-6.32ZM291.98,40.09l50.11,100.22h-149.66l50.11-100.22h49.44ZM106.9,40.09h90.87l-50.11,100.22H56.79l50.11-100.22Z"/>
  <g>
    <path class="cls-1" d="M331.5,689.28c-45.74,0-85.18-16.57-118.33-49.72-33.15-33.15-49.72-72.59-49.72-118.33,0-49.05,16.57-89.66,49.72-121.81,33.15-32.15,73.58-47.56,121.31-46.24v-23.86c0-75.57,25.52-140.37,76.57-194.4,51.04-54.03,113.69-81.04,187.93-81.04,64.3,0,120.98,20.38,170.03,61.15,49.05,40.77,80.21,93.3,93.47,157.61,51.04,7.95,93.14,31.49,126.28,70.6,33.15,39.11,49.72,84.52,49.72,136.23,0,58.34-20.38,107.89-61.15,148.66s-90.32,61.15-148.66,61.15h-497.18ZM935.08,585.87c29.17-29.17,43.75-64.63,43.75-106.4,0-42.43-14.25-78.06-42.76-106.89-28.5-28.84-63.31-43.25-104.41-43.25h-18.89c0-60.32-20.38-111.37-61.15-153.13-40.77-41.76-90.32-62.64-148.66-62.64s-107.72,20.88-148.16,62.64c-40.44,41.76-60.66,92.81-60.66,153.13v83.53h-62.64c-29.83,0-55.35,10.61-76.57,31.82-21.21,21.21-31.82,46.73-31.82,76.57,0,29.83,10.61,55.35,31.82,76.57,21.21,21.21,46.73,31.82,76.57,31.82h497.18c41.76,0,77.23-14.58,106.4-43.75Z"/>
    <path class="cls-1" d="M363.07,371.59c-.03-20.27,1.79-128.13,87.55-209.83,57.7-54.97,123.3-69.43,150.35-73.82,31.92,7.26,84.62,23.66,138.06,63.52,70.66,52.69,103.92,117.52,117.7,149.36,75.53,9.88,137.95,58.92,156.97,123.6,25.54,86.81-29.83,192.45-135.3,226.61H282.39c-65.03-31.64-97.81-106.31-77.25-175.11,20.27-67.84,87.07-112.12,157.94-104.33Z"/>
  </g>
</svg>